<svg xmlns="http://www.w3.org/2000/svg" viewBox="0 0 400 400"><defs><radialGradient id="g" cx=".3" cy=".2" r="1"><stop offset="0" stop-color="#3d2f0b"/><stop offset=".75" stop-color="#0d0a05"/></radialGradient></defs><rect width="400" height="400" fill="url(#g)"/><circle cx="200" cy="205" r="150" fill="none" stroke="#c8a501" stroke-opacity=".18" stroke-width="3"/><ellipse cx="200" cy="370" rx="120" ry="12" fill="#000" opacity=".35"/><rect x="140" y="110" width="13" height="130" rx="3" fill="#f5c542" transform="rotate(-20 146 240)"/><rect x="157" y="119" width="13" height="130" rx="3" fill="#f5c542" transform="rotate(-15 163 240)"/><rect x="174" y="128" width="13" height="130" rx="3" fill="#f5c542" transform="rotate(-10 180 240)"/><rect x="191" y="137" width="13" height="130" rx="3" fill="#f5c542" transform="rotate(-5 197 240)"/><rect x="208" y="116" width="13" height="130" rx="3" fill="#f5c542" transform="rotate(0 214 240)"/><rect x="225" y="125" width="13" height="130" rx="3" fill="#f5c542" transform="rotate(5 231 240)"/><rect x="242" y="134" width="13" height="130" rx="3" fill="#f5c542" transform="rotate(10 248 240)"/><rect x="259" y="113" width="13" height="130" rx="3" fill="#f5c542" transform="rotate(15 265 240)"/><rect x="276" y="122" width="13" height="130" rx="3" fill="#f5c542" transform="rotate(20 282 240)"/><path d="M130 215h140l-14 150h-112z" fill="#d62d2d"/><path d="M142 255h116" stroke="#fff" stroke-width="10" opacity=".8"/></svg>