<svg xmlns="http://www.w3.org/2000/svg" viewBox="0 0 400 400"><defs><radialGradient id="g" cx=".3" cy=".2" r="1"><stop offset="0" stop-color="#3d2f0b"/><stop offset=".75" stop-color="#0d0a05"/></radialGradient></defs><rect width="400" height="400" fill="url(#g)"/><circle cx="200" cy="205" r="150" fill="none" stroke="#c8a501" stroke-opacity=".18" stroke-width="3"/><ellipse cx="200" cy="370" rx="120" ry="12" fill="#000" opacity=".35"/><rect x="84.0" y="110" width="92" height="250" rx="16" fill="#d62d2d"/><rect x="84.0" y="110" width="92" height="22" rx="10" fill="#cfd5d3"/><rect x="84.0" y="340" width="92" height="20" rx="10" fill="#cfd5d3"/><rect x="94.0" y="130" width="10" height="210" fill="#fff" opacity=".25"/><rect x="154.0" y="110" width="92" height="250" rx="16" fill="#ff9d1c"/><rect x="154.0" y="110" width="92" height="22" rx="10" fill="#cfd5d3"/><rect x="154.0" y="340" width="92" height="20" rx="10" fill="#cfd5d3"/><rect x="164.0" y="130" width="10" height="210" fill="#fff" opacity=".25"/><rect x="224.0" y="110" width="92" height="250" rx="16" fill="#2fb12a"/><rect x="224.0" y="110" width="92" height="22" rx="10" fill="#cfd5d3"/><rect x="224.0" y="340" width="92" height="20" rx="10" fill="#cfd5d3"/><rect x="234.0" y="130" width="10" height="210" fill="#fff" opacity=".25"/></svg>