<svg xmlns="http://www.w3.org/2000/svg" viewBox="0 0 400 400"><defs><radialGradient id="g" cx=".3" cy=".2" r="1"><stop offset="0" stop-color="#3d2f0b"/><stop offset=".75" stop-color="#0d0a05"/></radialGradient></defs><rect width="400" height="400" fill="url(#g)"/><circle cx="200" cy="205" r="150" fill="none" stroke="#c8a501" stroke-opacity=".18" stroke-width="3"/><ellipse cx="200" cy="350" rx="150" ry="12" fill="#000" opacity=".35"/><ellipse cx="200" cy="318" rx="140" ry="28" fill="#e9eeec"/><path d="M110 195h180q0 105-60 125h-60q-60-20-60-125z" fill="#fff"/><path d="M290 215q50-6 40 36q-8 28-52 22" stroke="#fff" stroke-width="14" fill="none"/><ellipse cx="200" cy="195" rx="90" ry="22" fill="#c9781f"/><path d="M165 160q-14-20 0-38t0-36" stroke="#fff" stroke-opacity=".5" stroke-width="6" fill="none" stroke-linecap="round"/><path d="M200 160q-14-20 0-38t0-36" stroke="#fff" stroke-opacity=".5" stroke-width="6" fill="none" stroke-linecap="round"/><path d="M235 160q-14-20 0-38t0-36" stroke="#fff" stroke-opacity=".5" stroke-width="6" fill="none" stroke-linecap="round"/></svg>